<svg xmlns="http://www.w3.org/2000/svg" xmlns:xlink="http://www.w3.org/1999/xlink" width="300" zoomAndPan="magnify" viewBox="0 0 224.87999 89.999999" height="120" preserveAspectRatio="xMidYMid meet" version="1.0"><defs><g/><clipPath id="6810994fe2"><path d="M 4.871094 16 L 22 16 L 22 41.988281 L 4.871094 41.988281 Z M 4.871094 16 " clip-rule="nonzero"/></clipPath><clipPath id="f8e0cc8914"><path d="M 8 14 L 25 14 L 25 41.988281 L 8 41.988281 Z M 8 14 " clip-rule="nonzero"/></clipPath><clipPath id="0c9f83f54a"><path d="M 29 16 L 46.101562 16 L 46.101562 41.988281 L 29 41.988281 Z M 29 16 " clip-rule="nonzero"/></clipPath><clipPath id="92205108a9"><path d="M 26 14 L 43 14 L 43 41.988281 L 26 41.988281 Z M 26 14 " clip-rule="nonzero"/></clipPath></defs><g fill="#ff5757" fill-opacity="1"><g transform="translate(54.718756, 40.284107)"><g><path d="M 14.75 0.515625 C 12.269531 0.515625 9.992188 -0.0703125 7.921875 -1.25 C 5.859375 -2.4375 4.222656 -4.050781 3.015625 -6.09375 C 1.804688 -8.144531 1.203125 -10.398438 1.203125 -12.859375 C 1.203125 -15.359375 1.816406 -17.609375 3.046875 -19.609375 C 4.273438 -21.609375 5.9375 -23.171875 8.03125 -24.296875 C 10.125 -25.421875 12.398438 -25.984375 14.859375 -25.984375 C 16.742188 -25.984375 18.578125 -25.585938 20.359375 -24.796875 C 22.140625 -24.003906 23.671875 -22.914062 24.953125 -21.53125 C 26.242188 -20.15625 27.128906 -18.628906 27.609375 -16.953125 L 20.296875 -16.953125 C 19.703125 -18.015625 18.921875 -18.832031 17.953125 -19.40625 C 16.992188 -19.976562 15.90625 -20.265625 14.6875 -20.265625 C 13.351562 -20.265625 12.15625 -19.9375 11.09375 -19.28125 C 10.039062 -18.625 9.210938 -17.726562 8.609375 -16.59375 C 8.015625 -15.457031 7.71875 -14.210938 7.71875 -12.859375 C 7.71875 -11.429688 8.003906 -10.132812 8.578125 -8.96875 C 9.148438 -7.8125 9.960938 -6.894531 11.015625 -6.21875 C 12.078125 -5.539062 13.3125 -5.203125 14.71875 -5.203125 C 16.238281 -5.203125 17.535156 -5.554688 18.609375 -6.265625 C 19.691406 -6.984375 20.425781 -8 20.8125 -9.3125 L 13.203125 -9.3125 L 13.203125 -14.515625 L 28.375 -14.515625 L 28.375 -13.0625 C 28.375 -10.71875 27.820312 -8.503906 26.71875 -6.421875 C 25.613281 -4.347656 24.03125 -2.671875 21.96875 -1.390625 C 19.914062 -0.117188 17.507812 0.515625 14.75 0.515625 Z M 14.75 0.515625 "/></g></g></g><g fill="#ff5757" fill-opacity="1"><g transform="translate(83.46902, 40.284107)"><g><path d="M 21.8125 -9.890625 C 21.8125 -7.222656 21.390625 -5.210938 20.546875 -3.859375 C 19.691406 -2.484375 18.550781 -1.414062 17.125 -0.65625 C 15.707031 0.101562 14.046875 0.484375 12.140625 0.484375 C 9.972656 0.484375 8.15625 0.0546875 6.6875 -0.796875 C 5.125 -1.710938 3.988281 -2.851562 3.28125 -4.21875 C 2.582031 -5.582031 2.234375 -7.460938 2.234375 -9.859375 L 2.234375 -25.5 L 8.75 -25.5 L 8.75 -9.96875 C 8.75 -8.351562 9.015625 -7.160156 9.546875 -6.390625 C 10.078125 -5.617188 10.914062 -5.234375 12.0625 -5.234375 C 13.207031 -5.234375 14.03125 -5.578125 14.53125 -6.265625 C 15.039062 -6.960938 15.296875 -8.179688 15.296875 -9.921875 L 15.296875 -25.5 L 21.8125 -25.5 Z M 21.8125 -9.890625 "/></g></g></g><g fill="#ff5757" fill-opacity="1"><g transform="translate(106.841528, 40.284107)"><g><path d="M 8.546875 -8.234375 L 8.546875 0 L 2.3125 0 L 2.3125 -25.5 L 10.65625 -25.5 C 13.25 -25.5 15.257812 -25.191406 16.6875 -24.578125 C 18.082031 -23.953125 19.210938 -22.929688 20.078125 -21.515625 C 20.941406 -20.109375 21.375 -18.507812 21.375 -16.71875 C 21.375 -14.675781 20.796875 -12.910156 19.640625 -11.421875 C 18.492188 -9.941406 16.957031 -9.03125 15.03125 -8.6875 L 21.953125 0 L 14.515625 0 L 8.609375 -8.234375 Z M 15.125 -16.34375 C 15.125 -17.414062 14.75 -18.253906 14 -18.859375 C 13.257812 -19.472656 12.269531 -19.78125 11.03125 -19.78125 L 8.546875 -19.78125 L 8.546875 -12.6875 L 10.96875 -12.6875 C 12.269531 -12.6875 13.285156 -12.992188 14.015625 -13.609375 C 14.753906 -14.234375 15.125 -15.144531 15.125 -16.34375 Z M 15.125 -16.34375 "/></g></g></g><g fill="#ff5757" fill-opacity="1"><g transform="translate(128.662763, 40.284107)"><g><path d="M 21.8125 -9.890625 C 21.8125 -7.222656 21.390625 -5.210938 20.546875 -3.859375 C 19.691406 -2.484375 18.550781 -1.414062 17.125 -0.65625 C 15.707031 0.101562 14.046875 0.484375 12.140625 0.484375 C 9.972656 0.484375 8.15625 0.0546875 6.6875 -0.796875 C 5.125 -1.710938 3.988281 -2.851562 3.28125 -4.21875 C 2.582031 -5.582031 2.234375 -7.460938 2.234375 -9.859375 L 2.234375 -25.5 L 8.75 -25.5 L 8.75 -9.96875 C 8.75 -8.351562 9.015625 -7.160156 9.546875 -6.390625 C 10.078125 -5.617188 10.914062 -5.234375 12.0625 -5.234375 C 13.207031 -5.234375 14.03125 -5.578125 14.53125 -6.265625 C 15.039062 -6.960938 15.296875 -8.179688 15.296875 -9.921875 L 15.296875 -25.5 L 21.8125 -25.5 Z M 21.8125 -9.890625 "/></g></g></g><g fill="#ff5757" fill-opacity="1"><g transform="translate(152.035269, 40.284107)"><g><path d="M 9.515625 -11.03125 L 9.515625 0 L 3 0 L 3 -25.5 L 9.515625 -25.5 L 9.515625 -14.03125 L 9.578125 -14.03125 L 16.78125 -25.5 L 23.609375 -25.5 L 15.171875 -12.78125 L 24.15625 0 L 16.546875 0 L 9.578125 -11.03125 Z M 9.515625 -11.03125 "/></g></g></g><g fill="#ff5757" fill-opacity="1"><g transform="translate(175.718024, 40.284107)"><g><path d="M 21.8125 -9.890625 C 21.8125 -7.222656 21.390625 -5.210938 20.546875 -3.859375 C 19.691406 -2.484375 18.550781 -1.414062 17.125 -0.65625 C 15.707031 0.101562 14.046875 0.484375 12.140625 0.484375 C 9.972656 0.484375 8.15625 0.0546875 6.6875 -0.796875 C 5.125 -1.710938 3.988281 -2.851562 3.28125 -4.21875 C 2.582031 -5.582031 2.234375 -7.460938 2.234375 -9.859375 L 2.234375 -25.5 L 8.75 -25.5 L 8.75 -9.96875 C 8.75 -8.351562 9.015625 -7.160156 9.546875 -6.390625 C 10.078125 -5.617188 10.914062 -5.234375 12.0625 -5.234375 C 13.207031 -5.234375 14.03125 -5.578125 14.53125 -6.265625 C 15.039062 -6.960938 15.296875 -8.179688 15.296875 -9.921875 L 15.296875 -25.5 L 21.8125 -25.5 Z M 21.8125 -9.890625 "/></g></g></g><g fill="#ff5757" fill-opacity="1"><g transform="translate(199.09053, 40.284107)"><g><path d="M 9 -25.5 L 9 -5.71875 L 16.546875 -5.71875 L 16.546875 0 L 2.484375 0 L 2.484375 -25.5 Z M 9 -25.5 "/></g></g></g><g clip-path="url(#6810994fe2)"><path fill="#5271ff" d="M 4.875 42.035156 C 7.46875 41.097656 13.734375 39.4375 21.867188 41.332031 C 19.296875 39.890625 14.816406 38.578125 7.484375 39.773438 L 6.441406 39.941406 L 6.441406 16.449219 C 6.019531 16.445312 5.460938 16.460938 4.875 16.484375 L 4.875 42.035156 " fill-opacity="1" fill-rule="nonzero"/></g><g clip-path="url(#f8e0cc8914)"><path fill="#5271ff" d="M 24.707031 41.066406 L 24.707031 18.414062 C 23.96875 17.441406 19.761719 12.769531 8.238281 14.425781 L 8.238281 37.84375 C 9.964844 37.605469 11.539062 37.503906 12.972656 37.503906 C 19.253906 37.503906 22.847656 39.496094 24.707031 41.066406 " fill-opacity="1" fill-rule="nonzero"/></g><g clip-path="url(#0c9f83f54a)"><path fill="#5271ff" d="M 46.332031 42.035156 L 46.332031 16.484375 C 45.746094 16.460938 45.1875 16.445312 44.765625 16.449219 L 44.765625 39.941406 L 43.722656 39.773438 C 36.378906 38.574219 31.898438 39.890625 29.332031 41.332031 C 37.464844 39.4375 43.738281 41.097656 46.332031 42.035156 " fill-opacity="1" fill-rule="nonzero"/></g><g clip-path="url(#92205108a9)"><path fill="#5271ff" d="M 42.96875 37.84375 L 42.96875 14.425781 C 31.441406 12.765625 27.25 17.429688 26.503906 18.414062 L 26.503906 41.066406 C 28.785156 39.140625 33.691406 36.574219 42.96875 37.84375 " fill-opacity="1" fill-rule="nonzero"/></g><g fill="#5271ff" fill-opacity="1"><g transform="translate(21.568028, 67.748348)"><g><path d="M 3.53125 0 L 1.265625 0 L 1.265625 -11.34375 L 3.53125 -11.34375 Z M 3.53125 0 "/></g></g></g><g fill="#5271ff" fill-opacity="1"><g transform="translate(26.071779, 67.748348)"><g><path d="M 3.53125 -6.171875 L 3.53125 0 L 1.265625 0 L 1.265625 -11.578125 L 1.875 -11.578125 L 7.59375 -4.921875 L 7.59375 -11.328125 L 9.875 -11.328125 L 9.875 0.234375 L 9.28125 0.234375 Z M 3.53125 -6.171875 "/></g></g></g><g fill="#5271ff" fill-opacity="1"><g transform="translate(36.919038, 67.748348)"><g><path d="M 5.40625 0 L 3.140625 0 L 3.140625 -9.078125 L 0.3125 -9.078125 L 0.3125 -11.328125 L 8.234375 -11.328125 L 8.234375 -9.078125 L 5.40625 -9.078125 Z M 5.40625 0 "/></g></g></g><g fill="#5271ff" fill-opacity="1"><g transform="translate(45.276477, 67.748348)"><g><path d="M 7.140625 0 L 1.265625 0 L 1.265625 -11.34375 L 6.953125 -11.34375 L 6.953125 -9.078125 L 3.53125 -9.078125 L 3.53125 -6.796875 L 6.515625 -6.796875 L 6.515625 -4.53125 L 3.53125 -4.53125 L 3.53125 -2.265625 L 7.140625 -2.265625 Z M 7.140625 0 "/></g></g></g><g fill="#5271ff" fill-opacity="1"><g transform="translate(52.951981, 67.748348)"><g><path d="M 6.921875 0 L 4.625 -4.328125 L 3.53125 -4.328125 L 3.53125 0 L 1.265625 0 L 1.265625 -11.34375 L 5.734375 -11.34375 C 6.410156 -11.34375 6.984375 -11.203125 7.453125 -10.921875 C 7.929688 -10.640625 8.300781 -10.273438 8.5625 -9.828125 C 8.820312 -9.378906 8.984375 -8.890625 9.046875 -8.359375 C 9.117188 -7.835938 9.082031 -7.328125 8.9375 -6.828125 C 8.789062 -6.328125 8.546875 -5.882812 8.203125 -5.5 C 7.859375 -5.113281 7.40625 -4.835938 6.84375 -4.671875 L 9.484375 0 Z M 3.53125 -6.53125 L 5.53125 -6.53125 C 5.84375 -6.53125 6.085938 -6.613281 6.265625 -6.78125 C 6.453125 -6.957031 6.578125 -7.171875 6.640625 -7.421875 C 6.703125 -7.671875 6.703125 -7.921875 6.640625 -8.171875 C 6.578125 -8.429688 6.453125 -8.644531 6.265625 -8.8125 C 6.085938 -8.988281 5.84375 -9.078125 5.53125 -9.078125 L 3.53125 -9.078125 Z M 3.53125 -6.53125 "/></g></g></g><g fill="#5271ff" fill-opacity="1"><g transform="translate(62.356097, 67.748348)"><g><path d="M 3.53125 -6.171875 L 3.53125 0 L 1.265625 0 L 1.265625 -11.578125 L 1.875 -11.578125 L 7.59375 -4.921875 L 7.59375 -11.328125 L 9.875 -11.328125 L 9.875 0.234375 L 9.28125 0.234375 Z M 3.53125 -6.171875 "/></g></g></g><g fill="#5271ff" fill-opacity="1"><g transform="translate(73.203358, 67.748348)"><g><path d="M 0.25 0 L 5.03125 -11.75 L 5.265625 -11.75 L 10.03125 0 L 7.484375 0 L 7.03125 -1.21875 L 3.265625 -1.21875 L 2.828125 0 Z M 4.09375 -3.34375 L 6.1875 -3.34375 L 5.15625 -6.296875 Z M 4.09375 -3.34375 "/></g></g></g><g fill="#5271ff" fill-opacity="1"><g transform="translate(83.241827, 67.748348)"><g><path d="M 5.40625 0 L 3.140625 0 L 3.140625 -9.078125 L 0.3125 -9.078125 L 0.3125 -11.328125 L 8.234375 -11.328125 L 8.234375 -9.078125 L 5.40625 -9.078125 Z M 5.40625 0 "/></g></g></g><g fill="#5271ff" fill-opacity="1"><g transform="translate(91.599267, 67.748348)"><g><path d="M 3.53125 0 L 1.265625 0 L 1.265625 -11.34375 L 3.53125 -11.34375 Z M 3.53125 0 "/></g></g></g><g fill="#5271ff" fill-opacity="1"><g transform="translate(96.10302, 67.748348)"><g><path d="M 6.71875 0.15625 C 5.75 0.15625 4.894531 -0.00390625 4.15625 -0.328125 C 3.425781 -0.660156 2.816406 -1.101562 2.328125 -1.65625 C 1.847656 -2.207031 1.484375 -2.832031 1.234375 -3.53125 C 0.992188 -4.226562 0.875 -4.941406 0.875 -5.671875 C 0.875 -6.410156 0.992188 -7.128906 1.234375 -7.828125 C 1.484375 -8.523438 1.847656 -9.148438 2.328125 -9.703125 C 2.816406 -10.265625 3.425781 -10.707031 4.15625 -11.03125 C 4.894531 -11.363281 5.75 -11.53125 6.71875 -11.53125 C 7.695312 -11.53125 8.550781 -11.363281 9.28125 -11.03125 C 10.019531 -10.707031 10.628906 -10.265625 11.109375 -9.703125 C 11.597656 -9.148438 11.960938 -8.523438 12.203125 -7.828125 C 12.453125 -7.128906 12.578125 -6.410156 12.578125 -5.671875 C 12.578125 -4.941406 12.453125 -4.226562 12.203125 -3.53125 C 11.960938 -2.832031 11.597656 -2.207031 11.109375 -1.65625 C 10.628906 -1.101562 10.019531 -0.660156 9.28125 -0.328125 C 8.550781 -0.00390625 7.695312 0.15625 6.71875 0.15625 Z M 6.71875 -2.1875 C 7.363281 -2.1875 7.921875 -2.3125 8.390625 -2.5625 C 8.859375 -2.820312 9.226562 -3.160156 9.5 -3.578125 C 9.769531 -3.992188 9.953125 -4.445312 10.046875 -4.9375 C 10.148438 -5.4375 10.148438 -5.9375 10.046875 -6.4375 C 9.953125 -6.9375 9.769531 -7.394531 9.5 -7.8125 C 9.226562 -8.226562 8.859375 -8.5625 8.390625 -8.8125 C 7.921875 -9.070312 7.363281 -9.203125 6.71875 -9.203125 C 6.070312 -9.203125 5.515625 -9.070312 5.046875 -8.8125 C 4.585938 -8.5625 4.21875 -8.226562 3.9375 -7.8125 C 3.664062 -7.394531 3.484375 -6.9375 3.390625 -6.4375 C 3.296875 -5.9375 3.296875 -5.4375 3.390625 -4.9375 C 3.484375 -4.445312 3.664062 -3.992188 3.9375 -3.578125 C 4.21875 -3.160156 4.585938 -2.820312 5.046875 -2.5625 C 5.515625 -2.3125 6.070312 -2.1875 6.71875 -2.1875 Z M 6.71875 -2.1875 "/></g></g></g><g fill="#5271ff" fill-opacity="1"><g transform="translate(109.218091, 67.748348)"><g><path d="M 3.53125 -6.171875 L 3.53125 0 L 1.265625 0 L 1.265625 -11.578125 L 1.875 -11.578125 L 7.59375 -4.921875 L 7.59375 -11.328125 L 9.875 -11.328125 L 9.875 0.234375 L 9.28125 0.234375 Z M 3.53125 -6.171875 "/></g></g></g><g fill="#5271ff" fill-opacity="1"><g transform="translate(120.065352, 67.748348)"><g><path d="M 0.25 0 L 5.03125 -11.75 L 5.265625 -11.75 L 10.03125 0 L 7.484375 0 L 7.03125 -1.21875 L 3.265625 -1.21875 L 2.828125 0 Z M 4.09375 -3.34375 L 6.1875 -3.34375 L 5.15625 -6.296875 Z M 4.09375 -3.34375 "/></g></g></g><g fill="#5271ff" fill-opacity="1"><g transform="translate(130.103822, 67.748348)"><g><path d="M 1.265625 -11.34375 L 3.53125 -11.34375 L 3.53125 -2.265625 L 7.140625 -2.265625 L 7.140625 0 L 1.265625 0 Z M 1.265625 -11.34375 "/></g></g></g><g fill="#5271ff" fill-opacity="1"><g transform="translate(137.604888, 67.748348)"><g/></g></g><g fill="#5271ff" fill-opacity="1"><g transform="translate(141.791466, 67.748348)"><g><path d="M 0.75 -0.734375 L 1.03125 -3.109375 C 1.46875 -2.804688 1.898438 -2.585938 2.328125 -2.453125 C 2.753906 -2.316406 3.140625 -2.238281 3.484375 -2.21875 C 3.835938 -2.195312 4.097656 -2.191406 4.265625 -2.203125 C 4.609375 -2.222656 4.894531 -2.34375 5.125 -2.5625 C 5.363281 -2.78125 5.46875 -3.039062 5.4375 -3.34375 C 5.414062 -3.675781 5.289062 -3.925781 5.0625 -4.09375 C 4.84375 -4.257812 4.578125 -4.394531 4.265625 -4.5 C 3.671875 -4.726562 3.117188 -4.984375 2.609375 -5.265625 C 2.097656 -5.554688 1.6875 -5.921875 1.375 -6.359375 C 1.0625 -6.796875 0.90625 -7.332031 0.90625 -7.96875 C 0.90625 -8.59375 1.039062 -9.160156 1.3125 -9.671875 C 1.582031 -10.191406 1.957031 -10.601562 2.4375 -10.90625 C 2.925781 -11.21875 3.484375 -11.390625 4.109375 -11.421875 C 4.398438 -11.441406 4.757812 -11.429688 5.1875 -11.390625 C 5.625 -11.347656 6.207031 -11.195312 6.9375 -10.9375 L 6.640625 -8.75 C 6.015625 -9.007812 5.515625 -9.15625 5.140625 -9.1875 C 4.773438 -9.226562 4.503906 -9.242188 4.328125 -9.234375 C 3.929688 -9.210938 3.640625 -9.070312 3.453125 -8.8125 C 3.265625 -8.5625 3.179688 -8.28125 3.203125 -7.96875 C 3.234375 -7.644531 3.367188 -7.398438 3.609375 -7.234375 C 3.859375 -7.078125 4.144531 -6.9375 4.46875 -6.8125 C 5.0625 -6.601562 5.601562 -6.34375 6.09375 -6.03125 C 6.59375 -5.71875 6.992188 -5.34375 7.296875 -4.90625 C 7.597656 -4.46875 7.75 -3.945312 7.75 -3.34375 C 7.75 -2.71875 7.613281 -2.148438 7.34375 -1.640625 C 7.070312 -1.140625 6.675781 -0.734375 6.15625 -0.421875 C 5.644531 -0.117188 5.035156 0.0507812 4.328125 0.09375 C 4.117188 0.101562 3.832031 0.09375 3.46875 0.0625 C 3.101562 0.0390625 2.6875 -0.0234375 2.21875 -0.140625 C 1.75 -0.265625 1.257812 -0.460938 0.75 -0.734375 Z M 0.75 -0.734375 "/></g></g></g><g fill="#5271ff" fill-opacity="1"><g transform="translate(149.863448, 67.748348)"><g><path d="M 8.484375 -8.703125 C 8.273438 -8.816406 8.019531 -8.925781 7.71875 -9.03125 C 7.414062 -9.144531 7.015625 -9.203125 6.515625 -9.203125 C 5.867188 -9.203125 5.316406 -9.078125 4.859375 -8.828125 C 4.410156 -8.578125 4.046875 -8.242188 3.765625 -7.828125 C 3.492188 -7.421875 3.3125 -6.96875 3.21875 -6.46875 C 3.125 -5.976562 3.125 -5.488281 3.21875 -5 C 3.3125 -4.507812 3.492188 -4.054688 3.765625 -3.640625 C 4.046875 -3.234375 4.410156 -2.90625 4.859375 -2.65625 C 5.316406 -2.40625 5.867188 -2.28125 6.515625 -2.28125 C 7.015625 -2.28125 7.453125 -2.335938 7.828125 -2.453125 C 8.203125 -2.566406 8.492188 -2.679688 8.703125 -2.796875 L 9.015625 -0.4375 C 8.660156 -0.300781 8.253906 -0.1875 7.796875 -0.09375 C 7.347656 -0.0078125 6.921875 0.03125 6.515625 0.03125 C 5.554688 0.03125 4.71875 -0.128906 4 -0.453125 C 3.28125 -0.773438 2.675781 -1.207031 2.1875 -1.75 C 1.707031 -2.300781 1.347656 -2.914062 1.109375 -3.59375 C 0.878906 -4.28125 0.765625 -4.988281 0.765625 -5.71875 C 0.765625 -6.445312 0.878906 -7.148438 1.109375 -7.828125 C 1.347656 -8.515625 1.707031 -9.132812 2.1875 -9.6875 C 2.675781 -10.238281 3.28125 -10.675781 4 -11 C 4.71875 -11.320312 5.554688 -11.484375 6.515625 -11.484375 C 7.335938 -11.484375 8.082031 -11.332031 8.75 -11.03125 Z M 8.484375 -8.703125 "/></g></g></g><g fill="#5271ff" fill-opacity="1"><g transform="translate(159.093115, 67.748348)"><g><path d="M 9.203125 0 L 6.9375 0 L 6.9375 -4.53125 L 3.53125 -4.53125 L 3.53125 0 L 1.265625 0 L 1.265625 -11.34375 L 3.53125 -11.34375 L 3.53125 -6.796875 L 6.9375 -6.796875 L 6.9375 -11.34375 L 9.203125 -11.34375 Z M 9.203125 0 "/></g></g></g><g fill="#5271ff" fill-opacity="1"><g transform="translate(169.258454, 67.748348)"><g><path d="M 6.71875 0.15625 C 5.75 0.15625 4.894531 -0.00390625 4.15625 -0.328125 C 3.425781 -0.660156 2.816406 -1.101562 2.328125 -1.65625 C 1.847656 -2.207031 1.484375 -2.832031 1.234375 -3.53125 C 0.992188 -4.226562 0.875 -4.941406 0.875 -5.671875 C 0.875 -6.410156 0.992188 -7.128906 1.234375 -7.828125 C 1.484375 -8.523438 1.847656 -9.148438 2.328125 -9.703125 C 2.816406 -10.265625 3.425781 -10.707031 4.15625 -11.03125 C 4.894531 -11.363281 5.75 -11.53125 6.71875 -11.53125 C 7.695312 -11.53125 8.550781 -11.363281 9.28125 -11.03125 C 10.019531 -10.707031 10.628906 -10.265625 11.109375 -9.703125 C 11.597656 -9.148438 11.960938 -8.523438 12.203125 -7.828125 C 12.453125 -7.128906 12.578125 -6.410156 12.578125 -5.671875 C 12.578125 -4.941406 12.453125 -4.226562 12.203125 -3.53125 C 11.960938 -2.832031 11.597656 -2.207031 11.109375 -1.65625 C 10.628906 -1.101562 10.019531 -0.660156 9.28125 -0.328125 C 8.550781 -0.00390625 7.695312 0.15625 6.71875 0.15625 Z M 6.71875 -2.1875 C 7.363281 -2.1875 7.921875 -2.3125 8.390625 -2.5625 C 8.859375 -2.820312 9.226562 -3.160156 9.5 -3.578125 C 9.769531 -3.992188 9.953125 -4.445312 10.046875 -4.9375 C 10.148438 -5.4375 10.148438 -5.9375 10.046875 -6.4375 C 9.953125 -6.9375 9.769531 -7.394531 9.5 -7.8125 C 9.226562 -8.226562 8.859375 -8.5625 8.390625 -8.8125 C 7.921875 -9.070312 7.363281 -9.203125 6.71875 -9.203125 C 6.070312 -9.203125 5.515625 -9.070312 5.046875 -8.8125 C 4.585938 -8.5625 4.21875 -8.226562 3.9375 -7.8125 C 3.664062 -7.394531 3.484375 -6.9375 3.390625 -6.4375 C 3.296875 -5.9375 3.296875 -5.4375 3.390625 -4.9375 C 3.484375 -4.445312 3.664062 -3.992188 3.9375 -3.578125 C 4.21875 -3.160156 4.585938 -2.820312 5.046875 -2.5625 C 5.515625 -2.3125 6.070312 -2.1875 6.71875 -2.1875 Z M 6.71875 -2.1875 "/></g></g></g><g fill="#5271ff" fill-opacity="1"><g transform="translate(182.373525, 67.748348)"><g><path d="M 6.71875 0.15625 C 5.75 0.15625 4.894531 -0.00390625 4.15625 -0.328125 C 3.425781 -0.660156 2.816406 -1.101562 2.328125 -1.65625 C 1.847656 -2.207031 1.484375 -2.832031 1.234375 -3.53125 C 0.992188 -4.226562 0.875 -4.941406 0.875 -5.671875 C 0.875 -6.410156 0.992188 -7.128906 1.234375 -7.828125 C 1.484375 -8.523438 1.847656 -9.148438 2.328125 -9.703125 C 2.816406 -10.265625 3.425781 -10.707031 4.15625 -11.03125 C 4.894531 -11.363281 5.75 -11.53125 6.71875 -11.53125 C 7.695312 -11.53125 8.550781 -11.363281 9.28125 -11.03125 C 10.019531 -10.707031 10.628906 -10.265625 11.109375 -9.703125 C 11.597656 -9.148438 11.960938 -8.523438 12.203125 -7.828125 C 12.453125 -7.128906 12.578125 -6.410156 12.578125 -5.671875 C 12.578125 -4.941406 12.453125 -4.226562 12.203125 -3.53125 C 11.960938 -2.832031 11.597656 -2.207031 11.109375 -1.65625 C 10.628906 -1.101562 10.019531 -0.660156 9.28125 -0.328125 C 8.550781 -0.00390625 7.695312 0.15625 6.71875 0.15625 Z M 6.71875 -2.1875 C 7.363281 -2.1875 7.921875 -2.3125 8.390625 -2.5625 C 8.859375 -2.820312 9.226562 -3.160156 9.5 -3.578125 C 9.769531 -3.992188 9.953125 -4.445312 10.046875 -4.9375 C 10.148438 -5.4375 10.148438 -5.9375 10.046875 -6.4375 C 9.953125 -6.9375 9.769531 -7.394531 9.5 -7.8125 C 9.226562 -8.226562 8.859375 -8.5625 8.390625 -8.8125 C 7.921875 -9.070312 7.363281 -9.203125 6.71875 -9.203125 C 6.070312 -9.203125 5.515625 -9.070312 5.046875 -8.8125 C 4.585938 -8.5625 4.21875 -8.226562 3.9375 -7.8125 C 3.664062 -7.394531 3.484375 -6.9375 3.390625 -6.4375 C 3.296875 -5.9375 3.296875 -5.4375 3.390625 -4.9375 C 3.484375 -4.445312 3.664062 -3.992188 3.9375 -3.578125 C 4.21875 -3.160156 4.585938 -2.820312 5.046875 -2.5625 C 5.515625 -2.3125 6.070312 -2.1875 6.71875 -2.1875 Z M 6.71875 -2.1875 "/></g></g></g><g fill="#5271ff" fill-opacity="1"><g transform="translate(195.488596, 67.748348)"><g><path d="M 1.265625 -11.34375 L 3.53125 -11.34375 L 3.53125 -2.265625 L 7.140625 -2.265625 L 7.140625 0 L 1.265625 0 Z M 1.265625 -11.34375 "/></g></g></g></svg>